<?xml version="1.0" encoding="UTF-8" standalone="no"?>
<!-- Created with Inkscape (http://www.inkscape.org/) -->

<svg
   width="221.56316"
   height="213.21828"
   viewBox="0 0 58.621916 56.414001"
   version="1.1"
   id="svg5"
   inkscape:version="1.2.2 (b0a8486541, 2022-12-01)"
   sodipodi:docname="sassuga.svg"
   xmlns:inkscape="http://www.inkscape.org/namespaces/inkscape"
   xmlns:sodipodi="http://sodipodi.sourceforge.net/DTD/sodipodi-0.dtd"
   xmlns:xlink="http://www.w3.org/1999/xlink"
   xmlns="http://www.w3.org/2000/svg"
   xmlns:svg="http://www.w3.org/2000/svg">
  <sodipodi:namedview
     id="namedview7"
     pagecolor="#ffffff"
     bordercolor="#000000"
     borderopacity="0.25"
     inkscape:showpageshadow="2"
     inkscape:pageopacity="0.0"
     inkscape:pagecheckerboard="0"
     inkscape:deskcolor="#d1d1d1"
     inkscape:document-units="px"
     showgrid="false"
     inkscape:zoom="0.5921325"
     inkscape:cx="520.15385"
     inkscape:cy="432.33567"
     inkscape:window-width="1366"
     inkscape:window-height="699"
     inkscape:window-x="0"
     inkscape:window-y="32"
     inkscape:window-maximized="1"
     inkscape:current-layer="g2521"
     inkscape:lockguides="false" />
  <defs
     id="defs2">
    <inkscape:path-effect
       effect="fillet_chamfer"
       id="path-effect2548"
       is_visible="true"
       lpeversion="1"
       nodesatellites_param="F,0,0,1,0,0,0,1 @ F,0,0,1,0,0,0,1 @ F,0,0,1,0,1.0213246,0,1 @ F,0,0,1,0,0,0,1 @ F,0,0,1,0,0,0,1 @ F,0,0,1,0,0,0,1 @ F,0,0,1,0,0,0,1 @ F,0,0,1,0,0,0,1 @ F,0,0,1,0,0,0,1 @ F,0,0,1,0,0,0,1 @ F,0,0,1,0,0,0,1 @ F,0,0,1,0,0,0,1 @ F,0,0,1,0,0,0,1 @ F,0,0,1,0,0,0,1 @ F,0,0,1,0,0,0,1 @ F,0,0,1,0,0,0,1 @ F,0,0,1,0,0,0,1 @ F,0,0,1,0,2.4784671,0,1 | F,0,0,1,0,0,0,1 @ F,0,0,1,0,0,0,1 @ F,0,0,1,0,0,0,1 @ F,0,0,1,0,0,0,1 @ F,0,0,1,0,0,0,1 @ F,0,0,1,0,0,0,1 @ F,0,0,1,0,0,0,1 @ F,0,0,1,0,0,0,1 @ F,0,0,1,0,0.89748148,0,1 @ F,0,0,1,0,0,0,1 @ F,0,0,1,0,0,0,1 @ F,0,0,1,0,0,0,1 @ F,0,0,1,0,0,0,1 @ F,0,0,1,0,0,0,1 @ F,0,0,1,0,0,0,1"
       unit="px"
       method="auto"
       mode="F"
       radius="0"
       chamfer_steps="1"
       flexible="false"
       use_knot_distance="true"
       apply_no_radius="true"
       apply_with_radius="true"
       only_selected="false"
       hide_knots="false" />
    <linearGradient
       inkscape:collect="always"
       id="linearGradient873">
      <stop
         style="stop-color:#0bab64;stop-opacity:1;"
         offset="0"
         id="stop869" />
      <stop
         style="stop-color:#3bb78f;stop-opacity:1;"
         offset="1"
         id="stop871" />
    </linearGradient>
    <inkscape:path-effect
       effect="fillet_chamfer"
       id="path-effect2446"
       is_visible="true"
       lpeversion="1"
       nodesatellites_param="F,0,0,1,0,0,0,1 @ F,0,0,1,0,0,0,1 @ F,0,0,1,0,1.0213246,0,1 @ F,0,0,1,0,0,0,1 @ F,0,0,1,0,0,0,1 @ F,0,0,1,0,0,0,1 @ F,0,0,1,0,0,0,1 @ F,0,0,1,0,0,0,1 @ F,0,0,1,0,0,0,1 @ F,0,0,1,0,0,0,1 @ F,0,0,1,0,0,0,1 @ F,0,0,1,0,0,0,1 @ F,0,0,1,0,0,0,1 @ F,0,0,1,0,0,0,1 @ F,0,0,1,0,0,0,1 @ F,0,0,1,0,0,0,1 @ F,0,0,1,0,0,0,1 @ F,0,0,1,0,2.4784671,0,1 | F,0,0,1,0,0,0,1 @ F,0,0,1,0,0,0,1 @ F,0,0,1,0,0,0,1 @ F,0,0,1,0,0,0,1 @ F,0,0,1,0,0,0,1 @ F,0,0,1,0,0,0,1 @ F,0,0,1,0,0,0,1 @ F,0,0,1,0,0,0,1 @ F,0,0,1,0,0.89748148,0,1 @ F,0,0,1,0,0,0,1 @ F,0,0,1,0,0,0,1 @ F,0,0,1,0,0,0,1 @ F,0,0,1,0,0,0,1 @ F,0,0,1,0,0,0,1 @ F,0,0,1,0,0,0,1"
       unit="px"
       method="auto"
       mode="F"
       radius="0"
       chamfer_steps="1"
       flexible="false"
       use_knot_distance="true"
       apply_no_radius="true"
       apply_with_radius="true"
       only_selected="false"
       hide_knots="false" />
    <linearGradient
       inkscape:collect="always"
       xlink:href="#linearGradient873"
       id="linearGradient22056"
       x1="106.66396"
       y1="53.936539"
       x2="187.04051"
       y2="116.30605"
       gradientUnits="userSpaceOnUse"
       gradientTransform="matrix(0.80000004,0,0,0.80000004,-51.516678,22.910241)" />
    <linearGradient
       inkscape:collect="always"
       xlink:href="#linearGradient873"
       id="linearGradient2550"
       gradientUnits="userSpaceOnUse"
       gradientTransform="matrix(0.80000004,0,0,0.80000004,14.781232,131.47489)"
       x1="106.66396"
       y1="53.936539"
       x2="187.04051"
       y2="116.30605" />
  </defs>
  <g
     inkscape:label="Layer 1"
     inkscape:groupmode="layer"
     id="layer1"
     transform="translate(-119.14482,-134.48891)">
    <g
       id="g2521"
       transform="translate(14.082754,-33.764815)">
      <rect
         style="fill:#e7f6f2;fill-opacity:1;stroke-width:0.499999"
         id="rect12165"
         width="127.00001"
         height="105.83333"
         x="4.57512"
         y="44.317978"
         inkscape:export-filename="saasuga.png"
         inkscape:export-xdpi="127.99998"
         inkscape:export-ydpi="127.99998" />
      <path
         id="circle1571"
         style="fill:url(#linearGradient22056);fill-opacity:1;stroke:none;stroke-width:0.499998"
         d="m 68.074314,59.689085 c -16.187964,5.14e-4 -29.310524,13.123794 -29.31015,29.311758 0.0031,0.723335 0.03303,1.446189 0.08962,2.167079 0.04414,0.562304 0.481714,1.264869 0.947986,1.582271 6.322682,4.303998 11.527347,10.062507 15.172963,16.797607 0.0457,0.043 0.0896,0.0862 0.13562,0.12917 1.60737,1.6066 3.78932,3.08396 6.54816,4.43324 3.08992,1.51117 5.54097,2.16328 7.35217,1.95508 1.72902,-0.18001 3.02564,-1.15324 3.88918,-2.9189 0.51273,-1.04838 0.6963,-2.05238 0.55053,-3.01255 -0.14577,-0.96017 -0.51183,-1.9593 -1.09783,-2.99801 -0.66815,-1.01053 -1.4606,-2.04773 -2.37644,-3.11102 -0.99802,-1.03511 -2.09205,-2.15175 -3.28378,-3.34996 -2.43986,-2.560749 -4.49333,-4.931877 -6.1607,-7.114834 -1.69436,-2.127781 -2.90919,-4.260184 -3.64217,-6.396408 -0.78816,-2.163209 -1.06831,-4.385627 -0.84113,-6.667632 0.22718,-2.282006 1.01589,-4.803185 2.36515,-7.562033 2.61759,-5.35217 6.53096,-8.600207 11.74021,-9.744758 3.717602,-0.781481 8.048741,-0.327813 12.990103,1.354828 1.295585,0.441175 1.434259,0.194816 0.268176,-0.521285 -4.600309,-2.825084 -9.907104,-4.333495 -15.337669,-4.333643 z m 8.8003,16.39463 c -0.41851,-0.0028 -0.80878,0.02281 -1.16885,0.07747 -0.98716,0.200945 -1.79335,0.592939 -2.42004,1.175314 -0.62669,0.582372 -1.15524,1.314419 -1.587,2.197251 -0.9175,1.876018 -0.79097,3.852409 0.38101,5.929834 1.145,2.132607 3.51911,4.96863 7.12129,8.508094 1.55218,1.579629 3.06373,3.241845 4.53498,4.986998 1.44422,1.800344 2.6003,3.699684 3.4694,5.697364 0.579466,1.41251 0.968118,2.87976 1.17046,4.39998 0.06539,0.49128 0.386519,0.61348 0.731747,0.25784 5.276405,-5.4356 8.252007,-12.714495 8.278473,-20.313039 0,0 0,-0.01781 0,-0.01781 -1.2196,-1.663897 -2.80354,-3.417267 -4.761,-5.264688 -2.18732,-1.95863 -5.10052,-3.829138 -8.74219,-5.610175 -1.82083,-0.890518 -3.37854,-1.480232 -4.67218,-1.771039 -0.85988,-0.164141 -1.63857,-0.248869 -2.3361,-0.253462 z"
         inkscape:path-effect="#path-effect2446"
         inkscape:original-d="m 68.074314,59.689085 a 29.311081,29.311081 0 0 0 -29.31015,29.311758 29.311081,29.311081 0 0 0 0.18727,3.183673 47.908004,47.908004 0 0 1 16.0233,17.363284 c 0.0457,0.043 0.0896,0.0862 0.13562,0.12917 1.60737,1.6066 3.78932,3.08396 6.54816,4.43324 3.08992,1.51117 5.54097,2.16328 7.35217,1.95508 1.72902,-0.18001 3.02564,-1.15324 3.88918,-2.9189 0.51273,-1.04838 0.6963,-2.05238 0.55053,-3.01255 -0.14577,-0.96017 -0.51183,-1.9593 -1.09783,-2.99801 -0.66815,-1.01053 -1.4606,-2.04773 -2.37644,-3.11102 -0.99802,-1.03511 -2.09205,-2.15175 -3.28378,-3.34996 -2.43986,-2.560749 -4.49333,-4.931877 -6.1607,-7.114834 -1.69436,-2.127781 -2.90919,-4.260184 -3.64217,-6.396408 -0.78816,-2.163209 -1.06831,-4.385627 -0.84113,-6.667632 0.22718,-2.282006 1.01589,-4.803185 2.36515,-7.562033 2.61759,-5.35217 6.53096,-8.600207 11.74021,-9.744758 4.28928,-0.901654 9.3953,-0.159079 15.31297,2.21824 a 29.311081,29.311081 0 0 0 -17.39236,-5.71834 z m 8.8003,16.39463 c -0.41851,-0.0028 -0.80878,0.02281 -1.16885,0.07747 -0.98716,0.200945 -1.79335,0.592939 -2.42004,1.175314 -0.62669,0.582372 -1.15524,1.314419 -1.587,2.197251 -0.9175,1.876018 -0.79097,3.852409 0.38101,5.929834 1.145,2.132607 3.51911,4.96863 7.12129,8.508094 1.55218,1.579629 3.06373,3.241845 4.53498,4.986998 1.44422,1.800344 2.6003,3.699684 3.4694,5.697364 0.69206,1.68697 1.11195,3.45202 1.26734,5.29213 a 29.311081,29.311081 0 0 0 8.91334,-20.947349 29.311081,29.311081 0 0 0 0,-0.01781 c -1.2196,-1.663897 -2.80354,-3.417267 -4.761,-5.264688 -2.18732,-1.95863 -5.10052,-3.829138 -8.74219,-5.610175 -1.82083,-0.890518 -3.37854,-1.480232 -4.67218,-1.771039 -0.85988,-0.164141 -1.63857,-0.248869 -2.3361,-0.253462 z" />
      <text
         xml:space="preserve"
         style="font-weight:bold;font-size:19.7555px;font-family:Ubuntu;-inkscape-font-specification:'Ubuntu Bold';letter-spacing:-0.635px;fill:#000000;fill-opacity:1;stroke-width:0.499998"
         x="27.802071"
         y="130.66821"
         id="text289"><tspan
           sodipodi:role="line"
           id="tspan287"
           style="font-style:normal;font-variant:normal;font-weight:500;font-stretch:normal;font-size:19.7555px;font-family:Lexend;-inkscape-font-specification:'Lexend Medium';fill:#2c3333;fill-opacity:1;stroke-width:0.5"
           x="27.802071"
           y="130.66821">Saasuga</tspan></text>
      <path
         id="path2544"
         style="fill:url(#linearGradient2550);fill-opacity:1;stroke:none;stroke-width:0.499998"
         d="m 134.37222,168.25373 c -16.18796,5.1e-4 -29.31053,13.1238 -29.31015,29.31176 0.003,0.72333 0.033,1.44619 0.0896,2.16708 0.0441,0.5623 0.48172,1.26487 0.94799,1.58227 6.32268,4.304 11.52734,10.06251 15.17296,16.79761 0.0457,0.043 0.0896,0.0862 0.13562,0.12917 1.60737,1.6066 3.78932,3.08396 6.54816,4.43324 3.08992,1.51117 5.54097,2.16328 7.35217,1.95508 1.72902,-0.18001 3.02564,-1.15324 3.88918,-2.9189 0.51273,-1.04838 0.6963,-2.05238 0.55053,-3.01255 -0.14577,-0.96017 -0.51183,-1.9593 -1.09783,-2.99801 -0.66815,-1.01053 -1.4606,-2.04773 -2.37644,-3.11102 -0.99802,-1.03511 -2.09205,-2.15175 -3.28378,-3.34996 -2.43986,-2.56075 -4.49333,-4.93188 -6.1607,-7.11484 -1.69436,-2.12778 -2.90919,-4.26018 -3.64217,-6.3964 -0.78816,-2.16321 -1.06831,-4.38563 -0.84113,-6.66764 0.22718,-2.282 1.01589,-4.80318 2.36515,-7.56203 2.61759,-5.35217 6.53096,-8.60021 11.74021,-9.74476 3.7176,-0.78148 8.04874,-0.32781 12.9901,1.35483 1.29559,0.44117 1.43426,0.19481 0.26818,-0.52129 -4.60031,-2.82508 -9.9071,-4.33349 -15.33767,-4.33364 z m 8.8003,16.39463 c -0.41851,-0.003 -0.80878,0.0228 -1.16885,0.0775 -0.98716,0.20095 -1.79335,0.59294 -2.42004,1.17532 -0.62669,0.58237 -1.15524,1.31442 -1.587,2.19725 -0.9175,1.87602 -0.79097,3.85241 0.38101,5.92983 1.145,2.13261 3.51911,4.96863 7.12129,8.5081 1.55218,1.57962 3.06373,3.24184 4.53498,4.98699 1.44422,1.80035 2.6003,3.69969 3.4694,5.69737 0.57947,1.41251 0.96812,2.87976 1.17046,4.39998 0.0654,0.49128 0.38652,0.61348 0.73175,0.25784 5.2764,-5.4356 8.252,-12.7145 8.27847,-20.31304 0,0 0,-0.0178 0,-0.0178 -1.2196,-1.6639 -2.80354,-3.41727 -4.761,-5.26469 -2.18732,-1.95863 -5.10052,-3.82914 -8.74219,-5.61017 -1.82083,-0.89052 -3.37854,-1.48024 -4.67218,-1.77104 -0.85988,-0.16414 -1.63857,-0.24887 -2.3361,-0.25347 z"
         inkscape:path-effect="#path-effect2548"
         inkscape:original-d="m 134.37222,168.25373 a 29.311081,29.311081 0 0 0 -29.31015,29.31176 29.311081,29.311081 0 0 0 0.18727,3.18367 47.908004,47.908004 0 0 1 16.0233,17.36329 c 0.0457,0.043 0.0896,0.0862 0.13562,0.12917 1.60737,1.6066 3.78932,3.08396 6.54816,4.43324 3.08992,1.51117 5.54097,2.16328 7.35217,1.95508 1.72902,-0.18001 3.02564,-1.15324 3.88918,-2.9189 0.51273,-1.04838 0.6963,-2.05238 0.55053,-3.01255 -0.14577,-0.96017 -0.51183,-1.9593 -1.09783,-2.99801 -0.66815,-1.01053 -1.4606,-2.04773 -2.37644,-3.11102 -0.99802,-1.03511 -2.09205,-2.15175 -3.28378,-3.34996 -2.43986,-2.56075 -4.49333,-4.93188 -6.1607,-7.11484 -1.69436,-2.12778 -2.90919,-4.26018 -3.64217,-6.3964 -0.78816,-2.16321 -1.06831,-4.38563 -0.84113,-6.66764 0.22718,-2.282 1.01589,-4.80318 2.36515,-7.56203 2.61759,-5.35217 6.53096,-8.60021 11.74021,-9.74476 4.28928,-0.90165 9.3953,-0.15908 15.31297,2.21824 a 29.311081,29.311081 0 0 0 -17.39236,-5.71834 z m 8.8003,16.39463 c -0.41851,-0.003 -0.80878,0.0228 -1.16885,0.0775 -0.98716,0.20095 -1.79335,0.59294 -2.42004,1.17532 -0.62669,0.58237 -1.15524,1.31442 -1.587,2.19725 -0.9175,1.87602 -0.79097,3.85241 0.38101,5.92983 1.145,2.13261 3.51911,4.96863 7.12129,8.5081 1.55218,1.57962 3.06373,3.24184 4.53498,4.98699 1.44422,1.80035 2.6003,3.69969 3.4694,5.69737 0.69206,1.68697 1.11195,3.45202 1.26734,5.29213 a 29.311081,29.311081 0 0 0 8.91334,-20.94735 29.311081,29.311081 0 0 0 0,-0.0178 c -1.2196,-1.6639 -2.80354,-3.41727 -4.761,-5.26469 -2.18732,-1.95863 -5.10052,-3.82914 -8.74219,-5.61017 -1.82083,-0.89052 -3.37854,-1.48024 -4.67218,-1.77104 -0.85988,-0.16414 -1.63857,-0.24887 -2.3361,-0.25347 z"
         inkscape:export-filename="../../saasuga.svg"
         inkscape:export-xdpi="127.99998"
         inkscape:export-ydpi="127.99998" />
    </g>
  </g>
</svg>
